<svg width="192" height="192" viewBox="0 0 192 192" fill="none" xmlns="http://www.w3.org/2000/svg">
  <rect width="192" height="192" rx="24" fill="#22c55e"/>
  <rect x="48" y="48" width="96" height="96" rx="8" fill="white"/>
  <rect x="64" y="64" width="16" height="16" fill="#22c55e"/>
  <rect x="80" y="64" width="16" height="16" fill="white"/>
  <rect x="96" y="64" width="16" height="16" fill="#22c55e"/>
  <rect x="112" y="64" width="16" height="16" fill="white"/>
  <rect x="64" y="80" width="16" height="16" fill="white"/>
  <rect x="80" y="80" width="16" height="16" fill="#22c55e"/>
  <rect x="96" y="80" width="16" height="16" fill="white"/>
  <rect x="112" y="80" width="16" height="16" fill="#22c55e"/>
  <rect x="64" y="96" width="16" height="16" fill="#22c55e"/>
  <rect x="80" y="96" width="16" height="16" fill="white"/>
  <rect x="96" y="96" width="16" height="16" fill="#22c55e"/>
  <rect x="112" y="96" width="16" height="16" fill="white"/>
  <rect x="64" y="112" width="16" height="16" fill="white"/>
  <rect x="80" y="112" width="16" height="16" fill="#22c55e"/>
  <rect x="96" y="112" width="16" height="16" fill="white"/>
  <rect x="112" y="112" width="16" height="16" fill="#22c55e"/>
</svg>