<svg width="512" height="512" viewBox="0 0 512 512" fill="none" xmlns="http://www.w3.org/2000/svg">
  <rect width="512" height="512" rx="64" fill="#22c55e"/>
  <rect x="128" y="128" width="256" height="256" rx="24" fill="white"/>
  <rect x="160" y="160" width="48" height="48" fill="#22c55e"/>
  <rect x="208" y="160" width="48" height="48" fill="white"/>
  <rect x="256" y="160" width="48" height="48" fill="#22c55e"/>
  <rect x="304" y="160" width="48" height="48" fill="white"/>
  <rect x="160" y="208" width="48" height="48" fill="white"/>
  <rect x="208" y="208" width="48" height="48" fill="#22c55e"/>
  <rect x="256" y="208" width="48" height="48" fill="white"/>
  <rect x="304" y="208" width="48" height="48" fill="#22c55e"/>
  <rect x="160" y="256" width="48" height="48" fill="#22c55e"/>
  <rect x="208" y="256" width="48" height="48" fill="white"/>
  <rect x="256" y="256" width="48" height="48" fill="#22c55e"/>
  <rect x="304" y="256" width="48" height="48" fill="white"/>
  <rect x="160" y="304" width="48" height="48" fill="white"/>
  <rect x="208" y="304" width="48" height="48" fill="#22c55e"/>
  <rect x="256" y="304" width="48" height="48" fill="white"/>
  <rect x="304" y="304" width="48" height="48" fill="#22c55e"/>
</svg>